# xmcd
#
# Track frame offsets:
# 150
# 13953
# 29838
# 47113
# 65605
# 77198
# 92700
# 106608
# 121663
# 138395
# 149438
# 168138
# 182805
# 197288
# 210713
# 225013
#
# Disc length: 3193 seconds
#
#
# Revision: 1
# Processed by: cddbd v1.4PL0 Copyright (c) Steve Scherf et al.
# Submitted via: FreeRIP 2.30 
#
DISCID=d30c7710
DTITLE=Various Artist - 典藏國語老歌六
DYEAR=1900
DGENRE=國語老歌
TTITLE0=魂縈舊夢
TTITLE1=月亮代表我的心
TTITLE2=明日天涯
TTITLE3=秋的懷念
TTITLE4=淚\的小花
TTITLE5=未識綺羅香
TTITLE6=遙遠寄相思
TTITLE7=恨不相逢未嫁時
TTITLE8=淚\的小雨
TTITLE9=秋纏
TTITLE10=明日之歌
TTITLE11=你儂我儂
TTITLE12=夜空
TTITLE13=夕陽伴我歸
TTITLE14=娜奴娃情歌
TTITLE15=可愛的玫瑰花
EXTD=
EXTT0=
EXTT1=
EXTT2=
EXTT3=
EXTT4=
EXTT5=
EXTT6=
EXTT7=
EXTT8=
EXTT9=
EXTT10=
EXTT11=
EXTT12=
EXTT13=
EXTT14=
EXTT15=
PLAYORDER=
